# xmcd CD database file
#
# Track frame offsets:
#	150
#	17852
#	22654
#	36156
#	47858
#	60010
#	66837
#	80039
#	87616
#	102468
#	121670
#	131122
#	141324
#	149801
#	161128
#	173280
#	181532
#	189859
#	199461
#	205913
#	215665
#	224817
#
# Disc length: 3155 seconds
#
# Revision: 0
# Processed by: cddbd v1.5.2PL0 Copyright (c) Steve Scherf et al.
# Submitted via: CDex 1.70beta2
#
DISCID=4b0c5116
DTITLE=SEPTICEMIA/ANTRAKS - SEPTICEMIA/ANTRAKS
DYEAR=2007
DGENRE=Brutal Death Metal
TTITLE0=SEPTICEMIA - D.O.M
TTITLE1=SEPTICEMIA - FAMILY FORM (EAUSE OF JACK D'S)
TTITLE2=SEPTICEMIA - DEAD DEPRESSION
TTITLE3=SEPTICEMIA - CYBER IS NOT A CRIME
TTITLE4=SEPTICEMIA - SOLID WITH THE DEAD BODIES
TTITLE5=SEPTICEMIA - HYPOCRISY OF HUMAN HOOTLICKER
TTITLE6=SEPTICEMIA - I KILL YOU
TTITLE7=SEPTICEMIA - SPONTANEOUS FREE PLAY
TTITLE8=SEPTICEMIA - FUCK THE GOVERNMENT CORRUPTION
TTITLE9=SEPTICEMIA - VICTIM OF DISASTER
TTITLE10=ANTRAKS - TERJEBAK DIMENSI HARAM
TTITLE11=ANTRAKS - HUMAN MALEFACTOR
TTITLE12=ANTRAKS - BOASTER MONKEY
TTITLE13=ANTRAKS - ULTIMATUM
TTITLE14=ANTRAKS - KALEIDOSKOP KEBUSUKAN
TTITLE15=ANTRAKS - FORGOTTEN FEARS
TTITLE16=ANTRAKS - BOASTER MONKEY
TTITLE17=ANTRAKS - HUMAN MALEFACTOR
TTITLE18=ANTRAKS - HYPOCRISY
TTITLE19=ANTRAKS - FEEDS OF ZOMBIE
TTITLE20=ANTRAKS - ULTIMATUM
TTITLE21=ANTRAKS - KALEIDOSKOP KEBUSUKAN
EXTD=YEAR: 2007
EXTT0=
EXTT1=
EXTT2=
EXTT3=
EXTT4=
EXTT5=
EXTT6=
EXTT7=
EXTT8=
EXTT9=
EXTT10=
EXTT11=
EXTT12=
EXTT13=
EXTT14=
EXTT15=
EXTT16=
EXTT17=
EXTT18=
EXTT19=
EXTT20=
EXTT21=
PLAYORDER=
